# xmcd
#
# Track frame offsets:
#	150
#	24000
#	41765
#	65700
#	85272
#	109650
#	126867
#	139505
#	160895
#	189400
#
# Disc length: 2904 seconds
#
# Revision: 0
# Processed by: cddbd v1.4PL0 Copyright (c) Steve Scherf et al.
# Submitted via: dBpowerAMP V4.0
#
DISCID=7e0b560a
DTITLE=David Book, featuring Tommy Denander - Tied To The Blues
DYEAR=1998
DGENRE=Blues
TTITLE0=The Way You Walk
TTITLE1=Howling For That Taste
TTITLE2=I'm Calling You Muddy
TTITLE3=Tied To The Blues
TTITLE4=Kindhearted Woman
TTITLE5=Who Do You Think you Are
TTITLE6=Blues In Every Corner
TTITLE7=Little Sue
TTITLE8=Caught Redhanded
TTITLE9=Devil's Road
EXTD=
EXTT0=
EXTT1=
EXTT2=
EXTT3=
EXTT4=
EXTT5=
EXTT6=
EXTT7=
EXTT8=
EXTT9=
PLAYORDER=
